<svg xmlns="http://www.w3.org/2000/svg" viewBox="0 0 1167.5 961.94" xmlns:xlink="http://www.w3.org/1999/xlink">
 <defs>
  <style>
   .cls-1{fill:#006bff;}.cls-2{fill:#0ae8f0;}
  </style>
 </defs>
 <g id="Layer_2" data-name="Layer 2">
  <g id="Logo_assets" data-name="Logo assets">
   <path class="cls-1" d="M519.49,729c24.73,0,48.15,15.17,53.1,47.82H462.43c4.62-28.7,26.06-47.82,57.06-47.82m49.57,96.18c-23.42,38.75-101.55,26.68-106.63-23.3H600.62c17.23-122.61-166.3-136-167.54-13.19-5.44,85.13,118,118.4,160.94,49.47Z">
   </path>
   <rect class="cls-1" x="390.85" y="630.37" width="28.69" height="240.75">
   </rect>
   <path class="cls-1" d="M761.25,769.87V871.12H732.56v-99.6c0-27-15.5-42.22-40.89-42.22-67.18-3.55-44,98.7-47.82,141.82h-28.7V706.22h28.7V730c33.38-52.59,122.5-27.77,117.4,39.9">
   </path>
   <path class="cls-1" d="M919.47,788.67c.74-77.39-117.75-77.71-117.08,0-.66,77.71,117.83,77.38,117.08,0m28.69-158.3V871.12H919.47V842.75c-41.35,65.06-149.88,24.46-145.77-54.08-4.12-78.53,104.44-119.16,145.77-54.09V630.37Z">
   </path>
   <rect class="cls-1" x="971.29" y="630.37" width="28.69" height="240.75">
   </rect>
   <path class="cls-1" d="M339.71,788.67c.74-77.39-117.76-77.72-117.08,0-.67,77.71,117.83,77.38,117.08,0m28.69-82.45v164.9H339.71V842.76c-41.35,65-149.88,24.45-145.77-54.09-4.12-78.53,104.43-119.16,145.77-54.09V706.22Z">
   </path>
   <path class="cls-1" d="M151.38,839.42c-61.52,25-132.23-33.51-119-98.66,11.41-75.46,112.6-101,158.4-40l24.83-18.16c-61.3-82.83-198.12-48.85-213.55,53-19.91,105.22,108.36,182.13,191.64,115l-16.52-26.15a90.36,90.36,0,0,1-25.81,14.91">
   </path>
   <path class="cls-1" d="M1138.47,706.22c-4.83,39.45,21,145.24-44.47,143-67.67,1.43-41.54-101.76-46.33-143h-29c1,62.66-17.59,170.94,75.37,169.25,39.53,0,45.7-25,45.7-25.64V883.5c6.28,63.52-80.07,69.92-89.19,13.67l-25.94,9.06a72.13,72.13,0,0,0,70.35,55.71c46.95,0,72.58-30.88,72.58-78.44V706.22Z">
   </path>
   <path class="cls-1" d="M684.77,219.93a89.81,89.81,0,0,0-31.61-21.15,65.77,65.77,0,0,0-27.27-6.37l-24.48-.4a73.17,73.17,0,0,0-74.35,72l-.55,34a73.17,73.17,0,0,0,72,74.35s8.74.17,16,.29c4.68.07,8.74.13,9.44.1a66.33,66.33,0,0,0,22-3.69,89.83,89.83,0,0,0,36.78-21.6C710,321,746.84,308.14,783.32,308.73A147,147,0,0,1,811,311.82a147.42,147.42,0,0,0,.84-52.07,147.39,147.39,0,0,1-27.68,2.16c-36.49-.59-72.91-14.64-99.37-42">
   </path>
   <path class="cls-1" d="M703.8,369a120.54,120.54,0,0,1-48.34,28.71,95.52,95.52,0,0,1-30.79,5.22c-1.07,0-3.24,0-10.39-.07l-16.06-.25A103.34,103.34,0,0,1,496.51,298l.47-34A103.33,103.33,0,0,1,601.6,162.14l24.48.34a95.65,95.65,0,0,1,38.76,8.74A119.38,119.38,0,0,1,706.14,199c19.78,20.34,48.34,32.24,78.36,32.65a116.81,116.81,0,0,0,19.3-1.35A145.42,145.42,0,0,0,795,211.61l-28-50A147.14,147.14,0,0,0,640.65,86.26l-57.3-.79A147.19,147.19,0,0,0,454.9,157.29l-29.33,49.23a147.14,147.14,0,0,0-2,147.15l28,50A147.16,147.16,0,0,0,577.94,479l57.29.79A147.15,147.15,0,0,0,763.68,408L793,358.76a145.72,145.72,0,0,0,9.26-18.38A116.69,116.69,0,0,0,783,338.49c-30-.42-58.83,10.69-79.16,30.48">
   </path>
   <path class="cls-1" d="M870.12,334.85a137.69,137.69,0,0,0-58.7-26.24,146.4,146.4,0,0,1-8.36,29A109,109,0,0,1,849.68,357l-.12.38a254.58,254.58,0,0,1-90.08,127.43A252.52,252.52,0,0,1,355.8,282.56,252.55,252.55,0,0,1,759.34,80.15a254.67,254.67,0,0,1,90.11,127.2c.09.28.16.52.22.73l-.21.16a108.54,108.54,0,0,1-46.4,19.25,147.19,147.19,0,0,1,8.37,29.05,137.6,137.6,0,0,0,56.06-24.28c16.51-12.5,12.4-28.19,10.64-33.85C842.32,83.46,735.07,0,608.32,0,452.27,0,325.76,126.51,325.76,282.56S452.27,565.12,608.32,565.12c126.89,0,234.24-83.64,269.93-198.8,4.15-9.8,4.43-21.25-8.13-31.47">
   </path>
   <path class="cls-2" d="M784.5,231.6c-30-.41-58.58-12.31-78.36-32.65a119.47,119.47,0,0,0-41.31-27.73,95.53,95.53,0,0,0-38.75-8.74l-24.48-.33A103.32,103.32,0,0,0,497,263.92l-.47,34A103.33,103.33,0,0,0,598.22,402.58l16.06.25c7.16.1,9.32.1,10.39.08a96.23,96.23,0,0,0,30.78-5.22A120.55,120.55,0,0,0,703.8,369C724.14,349.18,753,338.08,783,338.49a116.78,116.78,0,0,1,19.31,1.89,147.6,147.6,0,0,0,8.77-28.91,147.78,147.78,0,0,0-27.67-3c-36.48-.5-73.24,12.45-100.52,39a89.9,89.9,0,0,1-36.73,21.69,66,66,0,0,1-22,3.74c-.7,0-4.76,0-9.44-.08l-16-.24a73.18,73.18,0,0,1-72.16-74.17l.47-34.05a73.17,73.17,0,0,1,74.17-72.15l24.49.33A66,66,0,0,1,653,198.82a89.9,89.9,0,0,1,31.66,21.08c26.53,27.27,63,41.23,99.47,41.74a147.63,147.63,0,0,0,27.69-2.24,146.84,146.84,0,0,0-8-29.15,116.81,116.81,0,0,1-19.3,1.35">
   </path>
  </g>
 </g>
</svg>