<?xml version="1.0" encoding="utf-8"?>
<!-- Uploaded to: SVG Repo, www.svgrepo.com, Generator: SVG Repo Mixer Tools -->
<svg width="800px" height="800px" viewBox="0 0 1024 1024" class="icon"  version="1.1" xmlns="http://www.w3.org/2000/svg"><path d="M794.22 896.466l-33.481 33.481a1.286 1.286 0 0 1-1.812 0L658.299 829.322a1.286 1.286 0 0 1 0-1.812l33.483-33.483a1.286 1.286 0 0 1 1.812 0L794.22 894.654a1.286 1.286 0 0 1 0 1.812zM229.779 896.466l33.482 33.482a1.286 1.286 0 0 0 1.812 0l100.626-100.626a1.286 1.286 0 0 0 0-1.812l-33.482-33.482a1.286 1.286 0 0 0-1.812 0L229.779 894.654a1.286 1.286 0 0 0 0 1.812z" fill="#152B3C" /><path d="M913.056 140.623c-53.901-53.901-143.334-59.565-205.127-17.556l-0.387-0.128c-4.504 3.604-10.085 7.941-16.307 13.562-1.587 1.502-3.52 2.575-5.106 4.122-0.729 0.729-1.028 1.713-1.631 2.487-5.752 5.791-11.841 13.389-18.024 21.928 96.855 50.292 172.256 135.906 209.503 239.669 21.286-17.292 40.942-36.346 50.679-52.785 0.475-0.77 0.691-1.587 1.073-2.4C948.373 322.015 960 289.014 960 253.996c0-42.826-16.651-83.08-46.944-113.373z" fill="#FF3B30" /><path d="M712.558 120.221c-1.536 0.966-3.125 1.827-4.628 2.849l-0.385-0.133c-4.506 3.604-10.086 7.941-16.309 13.562-1.585 1.502-3.52 2.577-5.106 4.123-0.731 0.726-1.028 1.716-1.63 2.487-5.753 5.792-11.844 13.391-18.026 21.927 96.855 50.293 172.256 135.906 209.503 239.669 19.601-15.922 37.455-33.25 47.821-48.748-38.915-102.174-114.797-186.192-211.24-235.736z" fill="#070707" /><path d="M354.393 160.489c-5.063-6.652-10.125-12.572-14.848-17.379-0.598-0.774-0.941-1.758-1.67-2.487-1.592-1.547-3.476-2.62-5.11-4.122-6.179-5.621-11.755-9.958-16.304-13.562l-0.347 0.128c-61.837-42.01-151.225-36.346-205.122 17.556C80.694 170.916 64 211.17 64 253.996c0 35.018 11.632 68.019 32.272 95.527 0.387 0.813 0.646 1.63 1.072 2.4 8.239 13.907 23.69 29.696 41.114 44.672 39.478-103.419 117.234-187.83 215.935-236.106z" fill="#FF3B30" /><path d="M100.185 356.021c8.654 12.882 22.508 27.029 38.272 40.573 39.479-103.421 117.236-187.83 215.936-236.103-5.063-6.653-10.125-12.574-14.85-17.381-0.595-0.771-0.939-1.761-1.669-2.487-1.592-1.547-3.476-2.621-5.11-4.123-6.179-5.621-11.755-9.958-16.304-13.562l-0.347 0.133c-1.508-1.027-3.102-1.887-4.641-2.854-96.466 49.548-172.371 133.595-211.287 235.804z" fill="#070707" /><path d="M511.998 121.065c-215.682 0-391.194 175.509-391.194 391.191 0 134.665 68.401 253.617 172.252 323.998 0 0 31.396 19.107 37.936 22.437 54.156 28.457 115.693 44.757 181.006 44.757 65.356 0 126.85-16.301 181.093-44.757 0 0 30.221-17.091 37.892-22.437 103.851-70.381 172.214-189.333 172.214-323.998-0.001-215.682-175.474-391.191-391.199-391.191zM678.872 759.15c-5.848 4.076-28.875 17.1-28.875 17.1-41.335 21.685-88.196 34.107-137.999 34.107-49.771 0-96.664-12.422-137.931-34.107-4.984-2.539-28.909-17.1-28.909-17.1-79.138-53.632-131.262-144.275-131.262-246.893 0-164.357 133.747-298.099 298.102-298.099 164.389 0 298.105 133.742 298.105 298.099 0 102.618-52.093 193.26-131.231 246.893z" fill="#0DB14B" /><path d="M492.522 215.145c-6.471-0.423-12.905-0.99-19.481-0.99-164.355 0-298.102 133.742-298.102 298.101 0 102.617 52.124 193.26 131.262 246.892 0 0 23.924 14.561 28.907 17.1 41.268 21.685 88.162 34.107 137.932 34.107 6.55 0 13.04-0.243 19.482-0.667-42.525-2.787-82.617-14.609-118.458-33.44-4.984-2.54-28.907-17.1-28.907-17.1-79.138-53.632-131.262-144.275-131.262-246.892 0.001-157.782 123.356-287 278.627-297.111z" fill="#070707" /><path d="M511.998 121.064c-6.575 0-12.982 0.665-19.477 0.989C699.17 132.306 864.239 303.15 864.239 512.257c0 134.663-68.361 253.616-172.212 323.996-7.672 5.345-37.892 22.437-37.892 22.437-48.811 25.607-103.525 41.253-161.61 44.153 6.462 0.324 12.934 0.605 19.474 0.605 65.356 0 126.85-16.301 181.093-44.757 0 0 30.221-17.092 37.892-22.437 103.851-70.381 172.212-189.333 172.212-323.996-0.002-215.685-175.475-391.194-391.198-391.194z" fill="#070707" /><path d="M374.067 776.253c41.267 21.682 88.162 34.105 137.931 34.105 49.803 0 96.664-12.423 137.999-34.105 0 0 23.028-13.029 28.875-17.102 79.137-53.63 131.231-144.276 131.231-246.895 0-164.356-133.716-298.101-298.105-298.101-164.355 0-298.102 133.745-298.102 298.101 0 102.618 52.126 193.264 131.262 246.895 0 0 23.925 14.559 28.909 17.102z" fill="#EEEEEE" /><path d="M233.375 551.213c0-164.354 133.747-298.101 298.102-298.101 109.245 0 204.676 59.244 256.587 147.111C743.673 291.252 636.746 214.156 512 214.156c-164.357 0-298.102 133.747-298.102 298.101 0 55.409 15.302 107.263 41.746 151.755-14.296-34.821-22.269-72.883-22.269-112.799z" fill="#070707" /><path d="M684.063 388.295c-8.583-8.583-22.486-8.583-31.069 0l-4.738 4.741c4.839 8.398 4.033 19.145-3.15 26.326L537.138 527.378c4.205 8.882 6.78 18.665 6.78 29.137 0 30.772-20.607 56.527-48.659 64.969 6.21 1.868 12.657 3.177 19.469 3.177 37.593 0 68.147-30.554 68.147-68.145 0-10.472-2.575-20.255-6.78-29.137l107.968-108.016c8.581-8.579 8.581-22.484 0-31.068zM497.744 272.002v219.716s-0.085 0.384-0.085 0.603c3.003 1.027 5.92 31.996 8.754 33.413l30.287-30.296V272.002c0-12.147-9.783-21.971-21.972-21.971-8.583 0-15.858 5.066-19.47 12.274 1.472 2.954 2.486 6.163 2.486 9.697z" fill="#070707" /><path d="M664.583 419.364L556.615 527.375c4.205 8.886 6.78 18.668 6.78 29.14 0 37.593-30.554 68.147-68.147 68.147-37.548 0-68.102-30.554-68.102-68.147 0-29.869 19.44-55.057 46.302-64.196l-0.172-0.387v-219.93c0-12.147 9.869-21.973 21.971-21.973 12.19 0 21.973 9.826 21.973 21.973v219.714s-0.083 0.387-0.083 0.603a70.258 70.258 0 0 1 8.752 3.647l107.626-107.669c8.581-8.583 22.486-8.583 31.067 0 8.584 8.581 8.584 22.486 0.001 31.067z" fill="#152B3C" /></svg>