<svg xmlns="http://www.w3.org/2000/svg" fill="none" viewBox="0 0 24 24" id="Posthog--Streamline-Svg-Logos" height="24" width="24">
  <desc>
    Posthog Streamline Icon: https://streamlinehq.com
  </desc>
  <path fill="#f9bd2b" d="M0.25 13.080325c0 -0.1331 0.160895 -0.19975 0.254995 -0.105625l0.68463 0.684625c0.0941 0.0941 0.027455 0.255 -0.10562 0.255H0.3993725C0.316875 13.914325 0.25 13.84745 0.25 13.76495v-0.684625Zm0 -0.72115c0 0.0396 0.0157375 0.0776 0.04375 0.105625l1.405775 1.405775c0.0280125 0.028 0.0660075 0.04375 0.10562 0.04375h0.77213c0.133075 0 0.199725 -0.1609 0.105625 -0.255l-2.177905 -2.1779C0.410895 11.3873 0.25 11.45395 0.25 11.587025v0.77215Zm0 -1.493275c0 0.0396 0.0157375 0.0776 0.04375 0.105625l2.89905 2.89905c0.028 0.028 0.066 0.04375 0.105625 0.04375h0.772125c0.133075 0 0.199725 -0.1609 0.105625 -0.255L0.504995 9.98815C0.4108975 9.89405 0.25 9.9607 0.25 10.093775v0.772125Zm1.493275 0c0 0.0396 0.015745 0.0776 0.0437525 0.105625L4.474825 13.659325c0.0941 0.0941 0.255 0.02745 0.255 -0.105625v-0.772125c0 -0.039625 -0.01575 -0.077625 -0.04375 -0.105625L1.9982675 9.98815c-0.0941025 -0.0941 -0.2549925 -0.02745 -0.2549925 0.105625v0.772125Zm1.748275 -0.87775c-0.0941 -0.0941 -0.255 -0.02745 -0.255 0.105625v0.772125c0 0.0396 0.01575 0.0776 0.04375 0.105625l1.194525 1.194525c0.0941 0.0941 0.255 0.02745 0.255 -0.105625v-0.772125c0 -0.039625 -0.01575 -0.077625 -0.04375 -0.105625l-1.194525 -1.194525Z" stroke-width="0.25"></path>
  <path fill="#000000" d="m6.602025 13.0985 -1.406 -1.406c-0.0941 -0.094125 -0.254975 -0.027475 -0.254975 0.1056v1.9667c0 0.0825 0.066875 0.149375 0.14935 0.149375h2.17795c0.0825 0 0.149375 -0.066875 0.149375 -0.149375v-0.1791c0 -0.0825 -0.06715 -0.14835 -0.148975 -0.159025 -0.25105 -0.032675 -0.485875 -0.14735 -0.666725 -0.328175Zm-0.944225 0.337825c-0.131875 0 -0.238925 -0.107025 -0.238925 -0.2389 0 -0.1319 0.10705 -0.23895 0.238925 -0.23895 0.1319 0 0.23895 0.10705 0.23895 0.23895 0 0.131875 -0.10705 0.2389 -0.23895 0.2389Z" stroke-width="0.25"></path>
  <path fill="#1d4aff" d="m0.49236 12.9633 0.012635 0.011375 0.6846325 0.684625c0.0900075 0.090025 0.0329425 0.24115 -0.08865 0.2541l-0.0169725 0.0009H0.3993725c-0.0766025 0 -0.13974 -0.05765 -0.1483675 -0.13195L0.25 13.764925v-0.684625c0 -0.1273 0.1472075 -0.1938 0.24236 -0.117Zm0 -1.49325 0.012635 0.011375 1.23828 1.238275v1.194625L0.29375 12.4648c-0.023345 -0.02335 -0.0381625 -0.053625 -0.042455 -0.085975L0.25 12.359175v-0.772125c0 -0.1273 0.1472075 -0.1938 0.24236 -0.117ZM0.25 10.093775c0 -0.1273 0.1472075 -0.1938 0.24236 -0.117l0.012635 0.011375 1.23828 1.238275v1.194625L0.29375 10.971525c-0.023345 -0.02335 -0.0381625 -0.053625 -0.042455 -0.086L0.25 10.8659v-0.772125Z" stroke-width="0.25"></path>
  <path fill="#f54e00" d="m1.743285 11.226425 1.449515 1.449525c0.02335 0.02335 0.038175 0.053625 0.042475 0.086l0.001275 0.019625v1.13275l-1.449515 -1.449525c-0.0233375 -0.02335 -0.03816 -0.053625 -0.0424525 -0.085975l-0.0012975 -0.01965v-1.13275Zm0 1.49325 0.939615 0.939625c0.090025 0.090025 0.03295 0.24115 -0.088625 0.2541l-0.016975 0.0009H1.743285v-1.194625Zm0.24236 -2.7429 0.0126325 0.011375 1.1945225 1.194525c0.02335 0.023325 0.038175 0.053625 0.042475 0.085975l0.001275 0.01965v1.13275l-1.449515 -1.449525c-0.0233375 -0.02335 -0.03816 -0.053625 -0.0424525 -0.086l-0.0012975 -0.019625v-0.772125c0 -0.1273 0.147215 -0.1938 0.24236 -0.117Z" stroke-width="0.25"></path>
  <path fill="#000000" d="M9.160025 13.31805h0.613625v-1.017525h0.51265c0.563125 0 0.924325 -0.333975 0.924325 -0.850525 0 -0.516525 -0.3612 -0.850525 -0.924325 -0.850525h-1.126275v2.718575Zm0.613625 -1.541825v-0.652425h0.450525c0.233 0 0.372825 0.12425 0.372825 0.3262 0 0.201975 -0.139825 0.326225 -0.372825 0.326225h-0.450525Zm2.547075 1.5729c0.5981 0 1.033075 -0.4272 1.033075 -1.00975 0 -0.58255 -0.434975 -1.009775 -1.033075 -1.009775 -0.60585 0 -1.03305 0.427225 -1.03305 1.009775 0 0.58255 0.4272 1.00975 1.03305 1.00975Zm-0.466025 -1.00975c0 -0.3107 0.1864 -0.5243 0.466025 -0.5243 0.27575 0 0.462175 0.2136 0.462175 0.5243s-0.186425 0.5243 -0.462175 0.5243c-0.279625 0 -0.466025 -0.2136 -0.466025 -0.5243Zm2.481075 1.00975c0.458275 0 0.768975 -0.2874 0.768975 -0.625275 0 -0.792275 -1.0525 -0.53595 -1.0525 -0.84665 0 -0.085425 0.089325 -0.139775 0.2175 -0.139775 0.13205 0 0.291275 0.081525 0.34175 0.260175l0.458275 -0.1903c-0.089325 -0.2835 -0.419425 -0.4777 -0.81945 -0.4777 -0.431075 0 -0.69905 0.256325 -0.69905 0.56315 0 0.741775 1.036925 0.53595 1.036925 0.84275 0 0.10875 -0.100975 0.18255 -0.252425 0.18255 -0.2175 0 -0.36895 -0.15145 -0.41555 -0.334l-0.458275 0.17865c0.100975 0.29515 0.396125 0.586425 0.873825 0.586425Zm2.245125 -0.050475 -0.038825 -0.493225c-0.066025 0.03495 -0.151475 0.0466 -0.221375 0.0466 -0.1398 0 -0.233025 -0.100975 -0.233025 -0.27575V11.8345h0.473825v-0.473825h-0.473825v-0.567h-0.5709v0.567h-0.310675v0.473825h0.310675v0.815575c0 0.4738 0.32235 0.69905 0.745675 0.69905 0.1165 0 0.22525 -0.0194 0.31845 -0.050475Zm1.99055 -2.699175v1.056375h-1.079675v-1.056375h-0.613625v2.718575h0.613625v-1.1379h1.079675v1.1379h0.6175V10.599475h-0.6175Zm1.979475 2.74965c0.5981 0 1.033075 -0.4272 1.033075 -1.00975 0 -0.58255 -0.434975 -1.009775 -1.033075 -1.009775 -0.60585 0 -1.03305 0.427225 -1.03305 1.009775 0 0.58255 0.4272 1.00975 1.03305 1.00975Zm-0.46605 -1.00975c0 -0.3107 0.186425 -0.5243 0.46605 -0.5243 0.27575 0 0.46215 0.2136 0.46215 0.5243s-0.1864 0.5243 -0.46215 0.5243c-0.279625 0 -0.46605 -0.2136 -0.46605 -0.5243Zm2.601025 0.91655c0.2136 0 0.4039 -0.0738 0.504875 -0.20195v0.1864c0 0.2175 -0.17475 0.368975 -0.442725 0.368975 -0.1903 0 -0.3573 -0.093225 -0.3845 -0.25245l-0.5204 0.08155c0.0699 0.36895 0.446625 0.617525 0.9049 0.617525 0.601975 0 1.001975 -0.353425 1.001975 -0.877725v-1.817575h-0.563125v0.167c-0.10485 -0.1204 -0.2835 -0.198075 -0.51265 -0.198075 -0.5437 0 -0.885475 0.37285 -0.885475 0.963175 0 0.5903 0.341775 0.96315 0.897125 0.96315Zm-0.34175 -0.96315c0 -0.291275 0.170875 -0.4777 0.434975 -0.4777 0.267975 0 0.43885 0.186425 0.43885 0.4777s-0.170875 0.477675 -0.43885 0.477675c-0.2641 0 -0.434975 -0.1864 -0.434975 -0.477675Z" stroke-width="0.25"></path>
</svg>